# Blender 4.2.1 LTS
# www.blender.org
mtllib Grass1.mtl
o Cube
v 1.000000 1.000000 -1.000000
v 0.566209 -1.000000 -0.566209
v 1.000000 1.000000 1.000000
v 0.566209 -1.000000 0.566209
v -1.000000 1.000000 -1.000000
v -0.566209 -1.000000 -0.566209
v -1.000000 1.000000 1.000000
v -0.566209 -1.000000 0.566209
v 1.000000 5.129684 1.000000
v -1.000000 5.129684 1.000000
v 1.000000 5.129684 -1.000000
v -1.000000 5.129684 -1.000000
v 0.325380 12.772085 0.418443
v -0.325380 12.772085 0.418443
v 0.325380 12.772085 -0.325380
v -0.325380 12.772085 -0.325380
v 0.091096 14.845934 0.091096
v -0.091096 14.845934 0.091096
v 0.091096 14.845934 -0.091096
v -0.091096 14.845934 -0.091096
v -0.918705 3.064842 -0.918705
v 0.918705 3.064842 -0.918705
v 0.918705 3.064842 0.918705
v -0.918705 3.064842 0.918705
v -0.723049 8.982937 -0.725296
v 0.723049 8.982937 -0.725296
v 0.723049 8.982937 0.772218
v -0.723049 8.982937 0.772218
vn -0.0000 -0.0393 -0.9992
vn -0.0000 -0.2120 0.9773
vn -0.9773 -0.2120 -0.0000
vn -0.0000 -1.0000 -0.0000
vn 0.9773 -0.2120 -0.0000
vn -0.0000 -0.2120 -0.9773
vn -0.0000 0.1050 -0.9945
vn -0.0000 -0.0393 0.9992
vn -0.9992 -0.0393 -0.0000
vn 0.9992 -0.0393 -0.0000
vn 0.9937 0.1123 -0.0000
vn 0.9945 0.1044 -0.0000
vn -0.9945 0.1044 -0.0000
vn -0.0000 0.0930 0.9957
vn -0.0000 1.0000 -0.0000
vn -0.9937 0.1123 -0.0000
vn -0.0000 0.1559 0.9878
vn -0.0000 0.1123 -0.9937
vn 0.9992 0.0393 -0.0000
vn -0.9992 0.0393 -0.0000
vn -0.0000 0.0393 0.9992
vn -0.0000 0.0393 -0.9992
vn -0.0000 0.0590 0.9983
vn -0.9974 0.0717 -0.0000
vn 0.9974 0.0717 -0.0000
vn -0.0000 0.0711 -0.9975
vt 0.625000 0.500000
vt 0.625000 0.250000
vt 0.375000 0.750000
vt 0.625000 0.750000
vt 0.625000 1.000000
vt 0.375000 1.000000
vt 0.375000 0.000000
vt 0.625000 0.000000
vt 0.375000 0.250000
vt 0.125000 0.500000
vt 0.375000 0.500000
vt 0.125000 0.750000
vt 0.625000 0.750000
vt 0.625000 0.000000
vt 0.875000 0.500000
vt 0.875000 0.750000
s 0
usemtl Material
f 22/1/1 21/2/1 12/2/1 11/1/1
f 4/3/2 3/4/2 7/5/2 8/6/2
f 8/7/3 7/8/3 5/2/3 6/9/3
f 6/10/4 2/11/4 4/3/4 8/12/4
f 2/11/5 1/1/5 3/4/5 4/3/5
f 6/9/6 5/2/6 1/1/6 2/11/6
f 26/1/7 25/2/7 16/2/7 15/1/7
f 24/5/8 23/4/8 9/4/8 10/5/8
f 21/2/9 24/8/9 10/8/9 12/2/9
f 23/4/10 22/1/10 11/1/10 9/4/10
f 13/4/11 15/1/11 19/1/11 17/4/11
f 27/13/12 26/1/12 15/1/12 13/4/12
f 25/2/13 28/14/13 14/8/13 16/2/13
f 28/5/14 27/13/14 13/4/14 14/5/14
f 19/1/15 20/15/15 18/16/15 17/4/15
f 16/2/16 14/8/16 18/8/16 20/2/16
f 14/5/17 13/4/17 17/4/17 18/5/17
f 15/1/18 16/2/18 20/2/18 19/1/18
f 3/4/19 1/1/19 22/1/19 23/4/19
f 5/2/20 7/8/20 24/8/20 21/2/20
f 7/5/21 3/4/21 23/4/21 24/5/21
f 1/1/22 5/2/22 21/2/22 22/1/22
f 10/5/23 9/4/23 27/13/23 28/5/23
f 12/2/24 10/8/24 28/14/24 25/2/24
f 9/4/25 11/1/25 26/1/25 27/13/25
f 11/1/26 12/2/26 25/2/26 26/1/26
